# xmcd CD database file
#
# Track frame offsets:
#	150
#	17367
#	38519
#	50700
#	67908
#	91037
#	102750
#	132940
#	154289
#	173926
#	193839
#	211255
#	229248
#	249026
#
# Disc length: 3829 seconds
#
# Revision: 0
# Processed by: cddbd v1.5.2PL0 Copyright (c) Steve Scherf et al.
# Submitted via: CDex 1.51
#
DISCID=ac0ef30e
DTITLE=Jimmy Bruno - Solo
DYEAR=2004
DGENRE=Jazz
TTITLE0=Have You Met Mrs Jones
TTITLE1=I've Grown Accustomed of Her Face
TTITLE2=Joy Spring
TTITLE3=Satin Doll
TTITLE4=Darn That Dream
TTITLE5=Just Friends
TTITLE6=Misty
TTITLE7=I'm in the Mood for Love
TTITLE8=The Toffelmire Band
TTITLE9=Benny's Tune
TTITLE10=Stella by Starlight
TTITLE11=Night and Day
TTITLE12=Giant Steps
TTITLE13=Data
EXTD=YEAR: 2004
EXTT0=
EXTT1=
EXTT2=
EXTT3=
EXTT4=
EXTT5=
EXTT6=
EXTT7=
EXTT8=
EXTT9=
EXTT10=
EXTT11=
EXTT12=
EXTT13=
PLAYORDER=
